<svg xmlns="http://www.w3.org/2000/svg" width="2590" height="828" viewBox="0 0 2590 828" version="1.1"><path d="M 416 21.083 C 355.754 26.366, 299.722 41.673, 248.379 66.875 C 202.214 89.535, 167.078 114.636, 131.468 150.396 C 90.577 191.461, 60.242 238.760, 41.292 291 C 32.963 313.961, 26.092 342.211, 22.322 369 C 19.800 386.913, 19.800 441.087, 22.322 459 C 32.246 529.511, 58.862 591.049, 103.634 647 C 116.665 663.285, 144.055 691.036, 160.500 704.617 C 218.774 752.742, 288.337 785.145, 365 799.876 C 392.305 805.123, 424.879 808.397, 444 807.818 L 454.500 807.500 455 692.500 C 455.371 607.243, 455.803 576.983, 456.671 575.500 C 461.764 566.800, 491.363 548.550, 510.447 542.343 C 516.401 540.407, 520.716 539.703, 527 539.643 C 536.277 539.554, 539.536 540.694, 545.927 546.264 C 553.367 552.747, 556.282 552.990, 585.500 549.563 C 605.034 547.272, 636.781 545.687, 652.167 546.235 C 659.683 546.502, 666.314 546.424, 666.902 546.060 C 667.741 545.542, 671.975 515.773, 671.995 510.250 C 672.011 506.072, 679.404 512.715, 684.592 521.567 C 686.145 524.216, 689.055 531.183, 691.060 537.049 C 693.065 542.914, 694.990 548.176, 695.339 548.740 C 695.688 549.304, 698.459 550.077, 701.498 550.456 C 704.536 550.836, 713.204 552.683, 720.761 554.560 C 728.317 556.438, 735.256 557.980, 736.179 557.987 C 737.980 558.001, 738.048 557.752, 742.347 535.557 C 743.619 528.988, 745.153 523.449, 745.754 523.249 C 747.397 522.701, 754.393 532.511, 758.415 541 C 761.915 548.387, 766 562.164, 766 566.578 C 766 570.585, 767.083 571.902, 774.354 576.732 C 778.284 579.343, 785.065 584.971, 789.423 589.240 C 793.781 593.508, 797.921 597, 798.622 597 C 801.779 597, 809.549 582.540, 812.003 572.097 C 813.633 565.163, 812.753 553.541, 809.958 545.075 C 800.262 515.703, 760.060 494.645, 699.840 487.392 C 682.024 485.247, 648.045 485.274, 629.500 487.450 C 589.842 492.102, 553.128 503.059, 520.127 520.091 C 500.205 530.373, 478.039 545.348, 465.638 556.902 C 462.038 560.256, 461.825 560.330, 462.505 558 C 462.907 556.625, 465.827 550.100, 468.994 543.500 C 482.428 515.506, 501.012 494.151, 519.673 485.266 C 529.686 480.499, 537.356 480.421, 546.151 484.999 C 554.490 489.339, 557.887 488.876, 575.500 481.004 C 594.440 472.538, 618.186 463.346, 637.500 457.004 C 646.300 454.115, 653.830 451.454, 654.234 451.091 C 654.638 450.729, 654.231 443.415, 653.330 434.838 C 652.430 426.261, 651.977 418.501, 652.325 417.594 C 652.891 416.120, 653.474 416.206, 657.824 418.411 C 663.914 421.497, 670.213 427.574, 677.014 436.925 C 681.701 443.368, 682.581 444.116, 684.895 443.620 C 694.682 441.526, 712.433 438.780, 723.011 437.725 L 735.500 436.480 735.500 419.330 C 735.500 409.898, 735.796 401.882, 736.157 401.517 C 737.324 400.337, 742.370 403.711, 747.611 409.173 C 753.732 415.553, 757.518 421.076, 762.320 430.629 C 765.880 437.713, 765.934 437.763, 770.702 438.439 C 779.995 439.756, 791.600 443.287, 800.884 447.620 C 806.045 450.029, 810.867 452, 811.599 452 C 814.175 452, 815.404 447.594, 815.364 438.500 C 815.236 409.586, 796.764 385.786, 767 376.183 C 752.125 371.383, 744.801 370.499, 720 370.511 C 693.410 370.523, 684.544 371.618, 659.500 377.987 C 638.084 383.433, 621.261 389.738, 599.500 400.474 C 567 416.509, 543.008 433.730, 517.429 459.384 C 501.242 475.618, 492.322 486.532, 479.737 505.500 C 466.842 524.935, 460.821 537.996, 454.429 560.400 C 452.561 566.945, 450.833 572.501, 450.587 572.746 C 450.342 572.991, 445.722 570.050, 440.321 566.210 C 415.749 548.743, 396.213 539.441, 378.962 536.995 C 368.779 535.550, 361.542 537.040, 351.042 542.740 C 341.558 547.889, 340.717 547.984, 322.824 545.934 C 317.146 545.283, 301.475 544.470, 288 544.126 L 263.500 543.500 261.748 525.500 C 260.785 515.600, 259.764 506.488, 259.479 505.250 C 257.551 496.864, 248.679 512.108, 242.044 535.206 C 238.975 545.891, 241.238 544.625, 220 547.536 C 213.125 548.478, 202.325 550.512, 196 552.056 C 189.675 553.600, 184.197 554.557, 183.828 554.182 C 183.458 553.807, 181.575 544.552, 179.644 533.617 C 177.713 522.681, 175.620 513.231, 174.992 512.617 C 173.176 510.840, 169.427 516.371, 165.920 526 C 162.907 534.271, 159.875 547.845, 158.549 559 L 157.895 564.500 149.697 568.856 C 137.740 575.211, 126.246 583.155, 117.580 591.055 C 113.389 594.875, 109.598 598, 109.155 598 C 106.370 598, 100.936 588.191, 98.357 578.505 C 96.120 570.108, 96.614 556.322, 99.473 547.302 C 109.669 515.142, 149.357 490.549, 202.500 483.459 C 216.954 481.531, 247.147 481.276, 262 482.956 C 300.849 487.352, 338.697 498.807, 375.807 517.403 C 400.284 529.669, 423.557 544.615, 448.661 564.192 C 449.358 564.735, 450.053 564.723, 450.401 564.161 C 451.192 562.881, 442.889 550.403, 433.992 539.500 C 416.026 517.485, 399.428 501.347, 384.487 491.367 C 371.717 482.838, 361.523 480.127, 354.968 483.517 C 353.354 484.351, 350.014 485.310, 347.544 485.649 C 343.392 486.218, 341.718 485.623, 325.277 477.728 C 305.071 468.026, 289.381 461.680, 273.632 456.840 L 262.765 453.500 263.442 445.500 C 263.815 441.100, 264.687 432.775, 265.380 427 C 266.074 421.225, 266.448 415.938, 266.213 415.250 C 264.144 409.198, 249.887 424.333, 241.014 442 C 239.771 444.475, 238.625 446.647, 238.468 446.826 C 238.310 447.005, 232.095 446.179, 224.656 444.989 C 217.217 443.799, 204.238 442.302, 195.815 441.663 L 180.500 440.500 180.559 436.500 C 180.592 434.300, 180.992 425.188, 181.448 416.250 L 182.278 400 179.732 400 C 174.370 400, 164.019 415.374, 156.504 434.500 C 154.992 438.350, 153.313 441.780, 152.774 442.122 C 152.236 442.465, 148.805 443.051, 145.150 443.426 C 135.162 444.449, 117.857 448.356, 105.405 452.398 C 99.303 454.379, 94.028 456, 93.683 456 C 92.692 456, 90.145 446.088, 89.442 439.500 C 87.118 417.711, 102.281 396.642, 129.451 383.910 C 146.637 375.856, 167.147 372.370, 191.911 373.294 C 283.504 376.709, 382.070 442.532, 443.461 541.278 C 447.803 548.263, 451.479 553.854, 451.630 553.704 C 451.780 553.553, 449.668 542.196, 446.936 528.465 C 436.624 476.641, 428.345 452.810, 416.069 439.617 C 409.878 432.964, 405.371 431.049, 395.832 431.022 C 391.614 431.010, 387.428 430.718, 386.530 430.373 C 385.631 430.028, 379.571 423.166, 373.063 415.123 C 338.630 372.573, 308.165 348.507, 264.814 329.614 C 241.384 319.402, 208.615 309.654, 177 303.489 C 158.181 299.820, 159.668 300.523, 160.399 295.647 C 160.741 293.366, 162.868 287.728, 165.125 283.117 C 172.508 268.034, 185.790 257.623, 203.700 252.877 C 213.625 250.247, 236.739 249.256, 249.500 250.914 C 342.596 263.007, 423.644 361.123, 451.412 495.348 C 452.761 501.865, 454.064 507.397, 454.308 507.642 C 455.072 508.405, 459.916 495.336, 462.627 485.197 C 464.698 477.449, 465.323 472.360, 465.738 459.875 C 466.344 441.619, 464.918 432.913, 459.431 421.372 C 455.621 413.358, 451.001 408.721, 443.877 405.760 C 438.197 403.400, 436.886 401.049, 434.531 389 C 429.866 365.139, 421.676 339.221, 412.254 318.500 C 409.253 311.900, 406.580 305.563, 406.314 304.418 C 405.917 302.708, 408.358 300.390, 420.005 291.418 C 427.801 285.413, 434.814 280, 435.589 279.390 C 437.848 277.612, 437.240 275.098, 434.379 274.380 C 429.984 273.277, 417.026 274.768, 407 277.530 C 391.318 281.850, 393.244 282.299, 386.801 272.829 C 383.684 268.248, 377.328 259.775, 372.676 254 C 365.949 245.648, 364.453 243.213, 365.359 242.097 C 365.985 241.326, 370.774 237.218, 375.999 232.969 C 387.146 223.904, 390.448 220.533, 389.570 219.113 C 387.043 215.024, 366.082 218.283, 348.888 225.437 C 347.763 225.905, 345.128 224.137, 340.169 219.587 C 331.551 211.678, 315.129 198.520, 306.909 192.938 C 299.029 187.587, 299.232 186.153, 308.838 179.281 C 327.903 165.642, 352.069 164.979, 376.828 177.414 C 402.517 190.315, 425.466 211.521, 440.390 236.146 C 455.463 261.017, 466.676 294.727, 472.045 331.306 C 473.760 342.988, 474.589 352.097, 476.845 384 L 477.588 394.500 480.856 384.500 C 503.433 315.437, 526.841 268.625, 556.430 233.368 C 569.863 217.361, 588.815 200.733, 602.237 193.176 C 604.843 191.709, 607.226 189.852, 607.534 189.051 C 608.391 186.818, 602.965 179.871, 597.969 176.803 C 584.145 168.313, 559.303 169.404, 536.575 179.498 C 513.659 189.676, 486.294 216.085, 460.743 252.681 L 455.500 260.191 455 140.345 L 454.500 20.500 440 20.375 C 432.025 20.306, 421.225 20.625, 416 21.083 M 1989.469 205.059 C 1959.717 207.354, 1932.760 215.394, 1913.015 227.861 C 1884.694 245.744, 1869.207 267.832, 1862.788 299.500 C 1859.944 313.532, 1859.924 337.690, 1862.745 351 C 1869.293 381.887, 1887.388 406.323, 1919.716 427.938 C 1929.541 434.506, 1947.415 443.719, 1994.411 466.438 C 2026.636 482.016, 2041.125 492.533, 2047.551 505.011 C 2051.316 512.322, 2052.206 526.757, 2049.435 535.567 C 2047.078 543.061, 2040.376 552.017, 2033.793 556.469 C 2016.625 568.079, 1981.042 569.971, 1942 561.351 C 1929.290 558.545, 1902.739 549.888, 1879.175 540.867 C 1870.747 537.640, 1863.659 535, 1863.425 535 C 1863.191 535, 1863 554.066, 1863 577.368 L 1863 619.736 1872.699 623.448 C 1893.116 631.263, 1917.395 636.989, 1943.500 640.146 C 1960.064 642.149, 2004.358 641.867, 2019.500 639.661 C 2060.223 633.729, 2087.828 621.719, 2110.171 600.213 C 2131.339 579.838, 2141.963 555.690, 2143.654 524.108 C 2144.353 511.037, 2142.936 496.016, 2139.889 484.197 C 2137.349 474.345, 2129.515 458.370, 2123.054 449.865 C 2107.844 429.845, 2079.551 410.232, 2038.142 391.003 C 1996.640 371.730, 1972.328 358.381, 1964.442 350.533 C 1961.660 347.765, 1958.060 342.800, 1956.442 339.500 C 1953.727 333.963, 1953.500 332.649, 1953.500 322.479 C 1953.500 312.045, 1953.675 311.103, 1956.781 304.794 C 1962.183 293.820, 1972.338 286.199, 1986.500 282.489 C 2000.623 278.790, 2025.348 279.664, 2048 284.664 C 2059.871 287.285, 2087.985 296.049, 2100.776 301.117 C 2104.778 302.703, 2108.490 304, 2109.026 304 C 2109.642 304, 2110 288.954, 2110 263.050 L 2110 222.100 2099.250 218.628 C 2062.137 206.641, 2026.329 202.215, 1989.469 205.059 M 1038 422.923 L 1038 636 1106.355 636 C 1170.674 636, 1190.063 635.418, 1208 632.951 C 1295.272 620.946, 1354.587 576.786, 1377.889 506.469 C 1386.969 479.068, 1390.322 456.016, 1390.395 420.500 C 1390.450 394.106, 1389.576 384.017, 1385.439 363.281 C 1375.967 315.807, 1351.081 276.426, 1313.500 249.443 C 1294.182 235.573, 1262.555 222.278, 1235.335 216.587 C 1208.022 210.875, 1205.913 210.761, 1118.750 210.286 L 1038 209.845 1038 422.923 M 1475 423 L 1475 636 1520 636 L 1565 636 1565 560.148 L 1565 484.297 1583.948 470.694 L 1602.896 457.091 1609.277 467.295 C 1612.787 472.908, 1637.402 512.600, 1663.978 555.500 C 1690.554 598.400, 1712.814 634.067, 1713.444 634.759 C 1714.343 635.747, 1725.635 635.962, 1765.781 635.759 L 1816.973 635.500 1742.418 517.185 C 1691.920 437.046, 1668.158 398.487, 1668.776 397.685 C 1669.278 397.033, 1702.227 355.100, 1741.997 304.500 C 1781.767 253.900, 1814.742 211.938, 1815.275 211.250 C 1816.048 210.254, 1806.014 210, 1765.839 210 L 1715.434 210 1658.477 281.750 C 1627.151 321.212, 1593.416 364.810, 1583.510 378.634 L 1565.500 403.768 1565.245 306.884 L 1564.990 210 1519.995 210 L 1475 210 1475 423 M 2219.462 211.250 C 2219.201 211.938, 2219.103 307.675, 2219.244 424 L 2219.500 635.500 2264.750 635.760 L 2310 636.020 2310 544.510 L 2310 453 2394 453 L 2478 453 2478 544.500 L 2478 636 2523 636 L 2568 636 2568 423 L 2568 210 2523 210 L 2478 210 2478 293.500 L 2478 377 2394 377 L 2310 377 2310 293.500 L 2310 210 2264.969 210 C 2229.864 210, 2219.833 210.276, 2219.462 211.250 M 663 254.406 C 640.916 258.328, 619.710 267.185, 597.777 281.647 C 557.739 308.047, 515.418 354.504, 481.687 409.084 L 477 416.668 477 435.334 C 477 445.600, 477.337 454.009, 477.750 454.020 C 478.163 454.031, 481.416 454.462, 484.980 454.977 C 497.482 456.783, 496.037 457.814, 533.307 420.522 C 551.563 402.255, 572.237 382.446, 579.250 376.501 C 586.263 370.556, 592 365.170, 592 364.533 C 592 363.896, 587.734 357.552, 582.520 350.437 C 577.306 343.322, 573.031 336.938, 573.020 336.250 C 573.009 335.563, 573.788 334.958, 574.750 334.907 C 584.569 334.387, 596.390 337.721, 607.500 344.145 C 615.543 348.796, 612.931 349.438, 630 338.618 C 635.775 334.958, 645.788 329.254, 652.250 325.943 C 658.712 322.632, 664 319.377, 664 318.710 C 664 318.043, 659.728 311.198, 654.507 303.499 C 649.286 295.799, 645.011 288.938, 645.007 288.250 C 644.998 286.719, 650.687 286.636, 657 288.075 C 663.947 289.658, 674.621 295.335, 684.267 302.577 L 693.034 309.159 702.209 307.005 C 713.791 304.285, 730.469 302.045, 739.316 302.020 C 748.511 301.993, 750.390 300.915, 749.517 296.164 C 747.165 283.355, 734.242 268.074, 719.899 261.142 C 715.280 258.910, 708.575 256.360, 705 255.477 C 696.137 253.288, 672.668 252.689, 663 254.406 M 1129 422.904 L 1129 561 1151.250 560.991 C 1186.391 560.978, 1201.714 559.115, 1221.945 552.395 C 1259.005 540.085, 1283.178 511.199, 1292 468.683 C 1299.008 434.908, 1297.932 391.868, 1289.333 362 C 1279.598 328.185, 1258.844 304.927, 1228.101 293.379 C 1210.189 286.651, 1203.386 285.787, 1164.250 285.272 L 1129 284.808 1129 422.904" stroke="none" fill="#fffcfc" fill-rule="evenodd"/><path d="" stroke="none" fill="#fcfcfc" fill-rule="evenodd"/></svg>