<svg xmlns="http://www.w3.org/2000/svg" width="2590" height="828" viewBox="0 0 2590 828" version="1.1"><path d="" stroke="none" fill="#bc0424" fill-rule="evenodd"/><path d="M 416 21.083 C 355.754 26.366, 299.722 41.673, 248.379 66.875 C 202.214 89.535, 167.078 114.636, 131.468 150.396 C 90.577 191.461, 60.242 238.760, 41.292 291 C 32.963 313.961, 26.092 342.211, 22.322 369 C 19.800 386.913, 19.800 441.087, 22.322 459 C 32.246 529.511, 58.862 591.049, 103.634 647 C 116.665 663.285, 144.055 691.036, 160.500 704.617 C 218.774 752.742, 288.337 785.145, 365 799.876 C 392.305 805.123, 424.879 808.397, 444 807.818 L 454.500 807.500 455 692.500 C 455.371 607.243, 455.803 576.983, 456.671 575.500 C 460.223 569.432, 475.258 558.841, 492.500 550.260 C 509.510 541.795, 523.658 538.228, 533.112 540.021 C 538.976 541.133, 541.343 542.288, 545.927 546.272 C 553.362 552.732, 556.337 552.985, 585.170 549.601 C 605.135 547.257, 638.226 545.712, 653.166 546.427 C 661.379 546.819, 667.065 546.704, 667.414 546.139 C 667.924 545.314, 671.984 513.514, 671.995 510.250 C 672.004 507.830, 674.888 509.041, 677.947 512.750 C 681.799 517.419, 684.512 524.518, 687.546 537.868 C 688.843 543.571, 690.038 548.367, 690.202 548.527 C 690.366 548.687, 695.900 549.776, 702.500 550.948 C 709.100 552.120, 718.906 554.186, 724.290 555.539 C 729.675 556.893, 734.925 558, 735.957 558 C 738.008 558, 738.090 557.714, 742.012 537 C 744.938 521.545, 744.607 522.282, 747.433 524.937 C 753.536 530.671, 759.239 546.526, 760.600 561.543 C 761.249 568.701, 761.447 569.179, 764.392 570.695 C 771.718 574.465, 783.027 582.887, 789.888 589.683 C 793.951 593.707, 797.886 597, 798.631 597 C 800.708 597, 805.502 589.747, 809.035 581.261 C 816.866 562.451, 812.718 541.219, 798.208 525.837 C 765.679 491.355, 686.836 476.458, 609 490.088 C 594.436 492.638, 576.776 497.084, 563.131 501.636 C 527.917 513.383, 490.932 534.173, 467.048 555.647 C 460.591 561.453, 460.697 560.790, 468.994 543.500 C 476.501 527.857, 485.168 515.028, 495.722 503.937 C 514.858 483.829, 531.435 477.648, 546.216 485.109 C 554.254 489.167, 558.228 488.769, 572 482.526 C 590.110 474.318, 613.770 465.069, 634 458.292 C 644.725 454.698, 653.830 451.460, 654.234 451.095 C 654.638 450.730, 654.231 443.415, 653.330 434.838 C 652.430 426.261, 651.978 418.500, 652.327 417.591 C 652.905 416.084, 653.301 416.113, 656.843 417.920 C 661.940 420.520, 668.428 427.870, 673.994 437.347 C 676.465 441.556, 678.715 444.998, 678.994 444.996 C 679.272 444.994, 685.125 443.886, 692 442.535 C 698.875 441.183, 711.654 439.296, 720.399 438.343 L 736.298 436.609 735.704 419.329 C 735.322 408.210, 735.467 401.829, 736.113 401.430 C 736.664 401.089, 738.913 402, 741.109 403.453 C 745.947 406.655, 752.522 416.542, 757.800 428.549 L 761.673 437.361 771.711 439.045 C 784.428 441.178, 794.571 444.255, 803.182 448.592 C 806.904 450.466, 810.620 452, 811.440 452 C 813.648 452, 814.841 449.052, 815.529 441.896 C 817.276 423.735, 806.223 399.850, 790.751 388.352 C 746.224 355.259, 652.269 366.177, 574.535 413.479 C 531.599 439.605, 489.967 483.142, 468.313 524.560 C 462.061 536.519, 459.003 544.392, 454.375 560.452 C 452.480 567.025, 450.782 572.552, 450.600 572.733 C 450.419 572.915, 445.372 569.628, 439.385 565.429 C 418.829 551.013, 401.610 541.981, 388.213 538.589 C 372.787 534.683, 364.194 535.647, 351.032 542.764 C 341.611 547.858, 340.520 547.985, 323.179 546.020 C 314.990 545.093, 276.753 543.049, 266.904 543.013 L 263.309 543 261.548 524.306 C 260.580 514.024, 259.563 505.024, 259.287 504.306 C 257.072 498.534, 246.383 515.379, 238.980 536.307 C 237.461 540.601, 236.044 544.289, 235.831 544.502 C 235.618 544.715, 229.156 545.812, 221.472 546.939 C 213.787 548.066, 202.859 550.116, 197.186 551.494 C 186.383 554.119, 183 554.528, 183 553.208 C 183 549.611, 175.873 513.478, 174.993 512.614 C 171.278 508.967, 159.083 537.055, 155.538 557.424 C 154.684 562.333, 153.876 566.404, 153.742 566.473 C 140.294 573.377, 126.758 582.613, 117.103 591.474 C 113.192 595.063, 109.622 598, 109.170 598 C 107.579 598, 104.073 593.419, 101.894 588.493 C 93.962 570.561, 95.585 549.209, 106.099 533.184 C 126.700 501.784, 176.090 481.997, 233.856 482.001 C 285.304 482.004, 342.395 497.899, 392.319 526.118 C 404.573 533.045, 430.470 550.189, 440.953 558.315 C 445.602 561.919, 449.784 564.633, 450.247 564.347 C 451.131 563.801, 447.458 556.941, 443.101 551 C 429.131 531.953, 403.838 505.103, 390.500 495.162 C 375.826 484.226, 362.309 479.720, 355.201 483.396 C 353.460 484.297, 350.010 485.311, 347.536 485.650 C 343.358 486.223, 341.699 485.623, 324.269 477.237 C 303.629 467.307, 292.371 462.683, 275 457.001 L 263.500 453.239 263.740 445.869 C 263.872 441.816, 264.580 433.550, 265.314 427.500 C 266.048 421.450, 266.455 415.938, 266.217 415.250 C 264.320 409.753, 250.061 422.707, 239.523 439.500 C 237.452 442.800, 235.622 445.653, 235.455 445.841 C 235.288 446.028, 228.480 445.228, 220.326 444.062 C 212.172 442.896, 199.875 441.618, 193 441.221 L 180.500 440.500 180.559 436.500 C 180.592 434.300, 180.992 425.188, 181.448 416.250 L 182.278 400 179.889 400.041 C 174.388 400.134, 163.975 413.178, 155.455 430.647 C 152.276 437.166, 149.636 442.565, 149.588 442.645 C 149.539 442.725, 147.250 443.074, 144.500 443.420 C 133.958 444.749, 118.145 448.355, 106.428 452.101 C 99.720 454.245, 93.966 456, 93.643 456 C 93.320 456, 92.387 453.637, 91.569 450.750 C 86.229 431.894, 90.481 415.350, 104.309 401.180 C 134.576 370.165, 195.576 364.620, 259.500 387.074 C 332.186 412.606, 398.446 468.404, 444.420 542.795 C 448.226 548.954, 451.468 553.865, 451.625 553.709 C 452.204 553.130, 440.892 498.264, 437.889 487.087 C 429.789 456.938, 420.202 439.270, 408.882 433.628 C 404.556 431.473, 402.218 431, 395.885 431 C 391.638 431, 387.428 430.718, 386.530 430.373 C 385.631 430.028, 379.407 422.959, 372.698 414.665 C 336.576 370.004, 304.753 345.509, 258.294 326.605 C 236.592 317.775, 206.641 309.257, 177 303.486 C 158.184 299.822, 159.668 300.523, 160.399 295.647 C 161.526 288.135, 168.499 275.612, 175.397 268.714 C 187.692 256.419, 201.998 251.213, 226 250.300 C 262.849 248.898, 298.084 260.988, 332.768 286.934 C 344.508 295.716, 366.324 317.106, 376.693 330 C 412.343 374.332, 438.236 431.632, 451.413 495.348 C 452.761 501.865, 454.075 507.408, 454.333 507.666 C 455.133 508.466, 460.956 492.347, 462.988 483.707 C 469.911 454.271, 466.687 427.509, 454.502 413.273 C 452.467 410.896, 448.501 407.963, 445.227 406.414 C 442.081 404.926, 438.961 402.986, 438.294 402.104 C 437.626 401.222, 436.352 397.125, 435.461 393 C 427.989 358.397, 421.981 339.178, 411.125 315.160 C 408.306 308.924, 406 303.458, 406 303.014 C 406 302.570, 412.340 297.323, 420.089 291.354 C 427.839 285.384, 434.814 280, 435.589 279.390 C 437.472 277.908, 437.380 275.360, 435.418 274.607 C 432.384 273.443, 406.439 274.081, 398.500 275.515 C 394.100 276.310, 390.440 276.970, 390.367 276.980 C 390.293 276.991, 387.375 273.063, 383.882 268.250 C 380.389 263.438, 374.674 255.986, 371.181 251.691 C 367.689 247.396, 365.062 243.282, 365.343 242.549 C 365.624 241.816, 370.275 237.622, 375.677 233.230 C 388.474 222.825, 390.762 220.360, 389.129 218.737 C 387.048 216.669, 364.294 217.343, 352.560 219.820 L 342.620 221.918 338.060 217.660 C 331.975 211.977, 314.395 198.022, 306.969 192.979 C 303.233 190.442, 301 188.222, 301 187.047 C 301 183.406, 313.467 175.172, 324.679 171.408 C 339.898 166.299, 358.824 168.376, 376.130 177.054 C 435.165 206.659, 468.262 267.847, 475.011 359.862 C 475.602 367.913, 476.427 379, 476.844 384.500 L 477.603 394.500 479.306 389.054 C 491.557 349.868, 512.354 300.892, 527.971 274.454 C 549.917 237.298, 574.835 209.958, 601.482 193.798 C 604.473 191.984, 607.184 189.846, 607.507 189.047 C 608.400 186.834, 602.986 179.884, 597.969 176.803 C 590.624 172.292, 582.195 170.664, 569.500 171.304 C 556.174 171.975, 547.093 174.415, 533.454 180.992 C 511.431 191.611, 486.227 216.256, 462 250.862 L 455.500 260.147 455 140.323 L 454.500 20.500 440 20.375 C 432.025 20.306, 421.225 20.625, 416 21.083 M 1993.500 204.667 C 1923.822 208.943, 1875.437 241.400, 1862.456 292.575 C 1857.677 311.414, 1857.033 332.315, 1860.642 351.410 C 1865.208 375.559, 1879.108 398.037, 1900.500 415.861 C 1917.771 430.251, 1934.524 439.926, 1973.477 458.008 C 2003.792 472.080, 2013.065 476.845, 2023.500 483.714 C 2034.728 491.105, 2041.967 498.091, 2045.652 505.089 C 2048.283 510.088, 2048.500 511.339, 2048.500 521.521 C 2048.500 531.951, 2048.324 532.899, 2045.226 539.193 C 2036.850 556.206, 2018.874 563.977, 1987.856 563.994 C 1957.190 564.011, 1933.210 558.486, 1883.281 539.899 C 1871.610 535.555, 1861.818 532, 1861.520 532 C 1861.223 532, 1861.096 551.680, 1861.239 575.733 L 1861.500 619.466 1868.500 622.293 C 1918.282 642.402, 1992.121 647.718, 2043.842 634.918 C 2064.868 629.715, 2078.809 623.722, 2094.856 612.988 C 2112.577 601.135, 2128.003 582.917, 2135.629 564.835 C 2148.527 534.253, 2148.057 494.492, 2134.465 466.340 C 2120.706 437.840, 2096.551 418.074, 2045.290 393.367 C 1972.117 358.098, 1964.183 353.220, 1957.348 339.301 C 1954.758 334.026, 1954.502 332.547, 1954.527 323 C 1954.550 313.631, 1954.847 311.896, 1957.284 306.888 C 1960.667 299.936, 1969.164 291.730, 1976.419 288.408 C 1986.272 283.898, 1994.655 282.747, 2013.500 283.321 C 2030.689 283.844, 2039.549 285.054, 2055 288.989 C 2066 291.790, 2085.516 298.134, 2099.811 303.556 C 2107.517 306.480, 2111.265 307.473, 2111.572 306.673 C 2111.820 306.027, 2111.905 286.865, 2111.761 264.090 L 2111.500 222.681 2103 219.799 C 2067.536 207.773, 2029.207 202.476, 1993.500 204.667 M 1038 423.071 L 1038 636.141 1115.750 635.705 C 1194.886 635.261, 1197.904 635.127, 1222.226 630.978 C 1302.546 617.276, 1358.594 573.257, 1380.983 506.292 C 1387.230 487.608, 1392.228 462.461, 1393.175 444.947 C 1393.880 431.931, 1393.208 392.231, 1392.144 384 C 1385.885 335.559, 1368.963 298.963, 1338.973 269.012 C 1332.633 262.680, 1323.709 254.841, 1319.140 251.591 C 1286.078 228.070, 1246.423 214.791, 1198.050 211.042 C 1190.420 210.451, 1152.882 210, 1111.300 210 L 1038 210 1038 423.071 M 1474 423 L 1474 636.020 1520.750 635.760 L 1567.500 635.500 1567.756 559.800 L 1568.013 484.100 1585.512 471.562 L 1603.011 459.024 1605.756 463.417 C 1607.265 465.834, 1632.125 505.645, 1661 551.886 L 1713.500 635.960 1766.750 635.980 C 1796.037 635.991, 1820 635.743, 1820 635.430 C 1820 635.116, 1786.475 582.052, 1745.500 517.510 C 1704.525 452.968, 1671 399.688, 1671 399.110 C 1671 398.532, 1704.297 356.084, 1744.993 304.780 C 1785.689 253.476, 1818.989 211.161, 1818.993 210.746 C 1818.997 210.332, 1795.636 210.004, 1767.081 210.018 L 1715.161 210.044 1656.196 283.772 C 1623.765 324.322, 1590.830 366.500, 1583.007 377.500 C 1575.184 388.500, 1568.495 397.815, 1568.142 398.200 C 1567.789 398.585, 1567.500 356.510, 1567.500 304.700 L 1567.500 210.500 1520.750 210.240 L 1474 209.980 1474 423 M 2216.005 423 L 2216.007 636 2263.015 636 L 2310.023 636 2310 554.250 C 2309.987 509.288, 2309.982 468.337, 2309.989 463.250 L 2310 454 2391.995 454 L 2473.989 454 2474.245 544.750 L 2474.500 635.500 2521.250 635.760 L 2568 636.020 2568 423 L 2568 209.980 2521.250 210.240 L 2474.500 210.500 2474.500 293.250 L 2474.500 376 2392.250 376 L 2310 376 2310 293 L 2310 210 2263.001 210 L 2216.003 210 2216.005 423 M 661.067 254.552 C 649.272 256.618, 631.272 262.842, 618.406 269.304 C 572.529 292.341, 526.622 338.545, 485.584 402.985 L 477 416.464 477 435.232 C 477 445.554, 477.337 454.009, 477.750 454.020 C 478.163 454.031, 481.416 454.462, 484.980 454.977 C 497.471 456.782, 496.097 457.757, 532.810 421.027 C 550.790 403.039, 571.462 383.253, 578.750 377.058 C 586.038 370.863, 592 365.250, 592 364.584 C 592 363.919, 587.734 357.552, 582.520 350.437 C 577.306 343.322, 573.031 336.877, 573.020 336.116 C 573.004 335.021, 574.446 334.835, 579.901 335.225 C 587.687 335.782, 595.978 339.194, 605.873 345.914 C 609.182 348.161, 612.157 350, 612.483 350 C 612.810 350, 616.997 347.374, 621.788 344.165 C 632.757 336.818, 645.856 329.100, 656.079 323.960 C 660.436 321.770, 664 319.420, 664 318.737 C 664 318.055, 659.728 311.198, 654.507 303.499 C 649.286 295.799, 645.011 288.875, 645.007 288.111 C 645.001 287.022, 646.274 286.838, 650.907 287.258 C 659 287.992, 668.427 293.126, 679.662 302.919 L 688.674 310.774 697.587 308.386 C 710.720 304.866, 722.071 303.032, 735 302.341 C 749.227 301.581, 750.420 301.073, 749.514 296.164 C 747.262 283.968, 734.700 268.610, 721.300 261.672 C 710.183 255.915, 700.920 253.872, 684 253.442 C 674.143 253.192, 666.800 253.547, 661.067 254.552 M 1131.992 330 C 1131.988 353.650, 1131.984 400.225, 1131.984 433.500 C 1131.984 466.775, 1131.988 508.448, 1131.992 526.106 L 1132 558.212 1162.750 557.703 C 1195.476 557.161, 1202.401 556.382, 1219 551.371 C 1253.369 540.996, 1276.563 518, 1288.020 482.939 C 1298.891 449.671, 1299.492 398.076, 1289.412 363.294 C 1280.584 332.829, 1264.795 312.880, 1239.500 300.232 C 1219.119 290.042, 1199.683 287.027, 1154.250 287.009 L 1132 287 1131.992 330" stroke="none" fill="#bc042c" fill-rule="evenodd"/></svg>